<svg xmlns="http://www.w3.org/2000/svg" version="1.1" id="prefix__Capa_1" x="0" y="0" viewBox="0 0 273 337" xml:space="preserve"><style type="text/css" id="style135">.prefix__st0{fill:#060606}.prefix__st2{fill:none}</style><path class="prefix__st0" d="M115.2 63.6h-7.8l-2.9 2.9v12.1l2.9 2.9h7.8l2.9-2.9V66.5zm2.5 14.8l-2.5 2.5h-7.6l-2.5-2.5V66.6l2.5-2.5h7.5l2.6 2.6z" id="prefix__path137"/><path class="prefix__st0" id="prefix__polygon141" d="M137.9 78.4v2h-5.1v-2h1.1v-9l-4.9 8.2-4.9-8.2v9h1.1v2h-5v-2h1V66.6h-1v-2h3.9l4.9 8.2 4.9-8.2h4v2h-1.1v11.8z"/><path class="prefix__st0" d="M114.8 64.6h-6.9l-2.3 2.3v11.2l2.3 2.3h6.9l2.3-2.3V66.9zm-.6 12.7l-1.1 1.1h-3.5l-1.1-1.1v-9.6l1.1-1.1h3.5l1.1 1.1z" id="prefix__path143"/><path class="prefix__st0" d="M102.8 67.6v-4h-7v4h1.1v4.2L92 63.6h-5.8v4h1.1v9.8h-1.1v4h7v-4h-1.1v-4l4.8 8h5.9v-4h-1.1v-9.8zm-.5 10.2V81h-5.2l-5.5-9.1v5.9h1.1V81h-6.2v-3.2h1V67.2h-1V64h5.1l5.6 9.2v-6.1h-1.1V64h6.2v3.2h-1.1v10.6z" id="prefix__path145"/><path class="prefix__st0" id="prefix__polygon149" d="M101.8 78.4v2h-4.3l-6.4-10.7v8.7h1.1v2h-5.1v-2h1V66.6h-1v-2h4.1l6.6 11v-9h-1.1v-2h5.1v2h-1.1v11.8z"/><path class="prefix__st0" d="M112.7 67.2h-2.9l-.9.9V77l.9.9h2.9l.9-.9v-8.9zm.5 9.7l-.6.6H110l-.6-.6v-8.7l.6-.6h2.6l.6.6z" id="prefix__path151"/><path class="prefix__st0" d="M169.1 77.3v-4l-1.2-1.2 1.2-1.1v-4.6l-2.9-2.9h-11v4h1.1v9.8h-1.1v4h7v-4h-1.1v-3.2h2.5l.6.5v6.7h6v-4zm.5 3.7h-5v-6.4l-.8-.8h-3.1v4.1h1.1V81h-6.2v-3.2h1V67.2h-1V64H166l2.6 2.6v4.2l-1.3 1.4 1.3 1.4v4.3h1z" id="prefix__path153"/><path class="prefix__st0" d="M168.1 78.5v-4.7l-1.6-1.6 1.6-1.6V67l-2.3-2.3h-9.6v2h1v11.8h-1v2h5.1v-2h-1.1v-5.2h3.9l1.1 1.1v6.1h4v-2zm-2.8-8.4l-1.2 1.1h-3.8v-4.6h3.9l1.1 1.1z" id="prefix__path157"/><path class="prefix__st0" d="M163.8 67.2h-3v3.4h3l.9-.9v-1.6zm.4 2.4l-.6.6h-2.4v-2.6h2.4l.6.6z" id="prefix__path161"/><path class="prefix__st0" id="prefix__polygon165" d="M176.6 66.6v4.9h2.7v-.7h2v3.5h-2v-.8h-2.7v4.9h5.1v-.7h2v2.7h-11.1v-2h1V66.6h-1v-2h11.1v2.8h-2v-.8z"/><path class="prefix__st0" d="M184.7 68.3v-4.7h-13.1v4h1.1v9.8h-1.1v4h13.1v-4.7h-4v.7h-3.1v-2.9h.7v.7h4v-5.4h-4v.7h-.7v-2.9h3.1v.7zm-7.6-1.1V71h1.6v-.7h3.2v4.5h-3.2v-.7h-1.6v3.8h4v-.7h3.2V81H172v-3.2h1V67.2h-1V64h12.2v3.9H181v-.7z" id="prefix__path167"/><path class="prefix__st0" d="M138.8 67.6v-4h-5.7l-4.1 6.9-4.2-6.9h-5.7v4h1.1v9.8h-1.1v4h7v-4H125v-4.6l3.9 6.4 3.9-6.4v4.6h-1v4h7v-4h-1.1v-9.8zm-.4 10.2V81h-6.2v-3.2h1.1v-6.7l-4.3 7.5-4.3-7.3v6.4h1.1V81h-6.2v-3.2h1V67.2h-1V64h5.2l4.3 7.1 4.2-7.1h5.1v3.2h-1.1v10.6z" id="prefix__path171"/><path class="prefix__st2" id="prefix__polygon175" d="M148.5 74.3h-2.4v-.1h2.4l.6.6v.1z"/><path class="prefix__st2" d="M149 73.2h-3.9v5.2h3.9l1.1-1.1v-3zm.5 3.7l-.9.9h-3v-4.1h3l.9.9z" id="prefix__path177"/><path class="prefix__st2" d="M140.5 80.9l10.4.1 2.6-2.6v-.1l-2.6 2.6zm11.7-8.7l1.3-1.2v-.1z" id="prefix__path179"/><path class="prefix__st0" d="M153 67l-2.3-2.3h-9.6v1.9h1v11.8h-1v2h9.6l2.3-2.3v-4.3l-1.6-1.6 1.6-1.6zm-2.9 10.3l-1.1 1.1h-3.9v-5.2h3.9l1.1 1.1zm0-7.2l-1.1 1.1h-3.9v-4.6h3.9l1.1 1.1z" id="prefix__path181"/><path class="prefix__st0" d="M148.6 73.9h-3v4h3l.9-.9v-2.2zm-2.5.4h2.4l.6.6v2l-.6.6h-2.4z" id="prefix__path183"/><path class="prefix__st0" d="M148.6 67.2h-3v3.4h3l.9-.9v-1.6zm.5 2.4l-.6.6h-2.4v-2.6h2.4l.6.6z" id="prefix__path185"/><path class="prefix__st0" d="M154 66.5l-2.9-2.9h-11v4h1.1v9.8h-1.1v4h11l2.9-2.9v-5.2l-1.2-1.2L154 71zm-.5 4.4l-1.3 1.3 1.3 1.3v4.8l-2.6 2.6h-10.4v-3.2h1V67.2h-1V64h10.4l2.6 2.6z" id="prefix__path187"/><path d="M116.2 101.3l-4.5-5.4H90.3v109.5l5.4 6.7.2.2h20.4V101.5l-.1-.2zM96.5 211l-4.4-5.3h19.2l3.6 5.3H96.5zm18.9-1.2l-3.2-4.8V98l3.2 3.8v108zm66.6-97s-13.8-17.2-13.8-17.4l-.2-.2h-30.5l-.2.2-13.2 17.4-.1.2v76.6l.1.2 13.3 16.7 4.8 5 .2.2h29.4l.2-.2 13.2-17 .1-.1v-.2l.3-77.3-3.6-4.1zm-22.3 7.8v4.3l-9.5.1-3.3-4.4h12.8zm0 5.4v55.9h-9.2v-55.8l9.2-.1zm-13.4-4.3l3.1 4v56.2h-3.3l.2-60.2zm-3.5 88.9l-3.7-3.8h28.7l2.6 3.8h-27.6zm28.8-.4l-2.7-4 11.8-16.2 3.4 4.2-12.5 16zm12.6-17.7l-3.3-4 .3-74.7 3.3 3.6-.3 75.1z" id="prefix__path199" fill-rule="evenodd" clip-rule="evenodd" fill="#060606"/></svg>